# xmcd
#
# Track frame offsets:
#	150
#	14837
#	26876
#	45323
#	55438
#	68653
#	79752
#	92905
#	103858
#	118566
#
# Disc length: 1737 seconds
# Revision: 0
# Processed by: cddbd v1.5.2PL0 Copyright (c) Steve Scherf et al.
# Submitted via: dBpowerAMP V12.0
#
DISCID=8506c70a
DTITLE=Chris Hillman - Desert rose
DYEAR=1990
DGENRE=Country
TTITLE0=Why you been gone so long
TTITLE1=Somebody's back in town
TTITLE2=Wall around your heart
TTITLE3=Rough and rowdy ways
TTITLE4=Desert rose
TTITLE5=Running the roadblocks
TTITLE6=I can't keep you in love with me
TTITLE7=Treasure of love
TTITLE8=Ashes of love
TTITLE9=Turn your radio on
EXTD=
EXTT0=
EXTT1=
EXTT2=
EXTT3=
EXTT4=
EXTT5=
EXTT6=
EXTT7=
EXTT8=
EXTT9=
PLAYORDER=
